#!OML:ASF I:\Random Stuff\random\construction\7_22_03\Session 2\subj1.ASF
:FULLY-SPECIFIED
:DEGREES
1833
root 4.98397 17.7658 0.586988 21.5344 97.6942 13.9124
lowerback -0.999476 2.07821 -2.45075
upperback -0.836728 2.79555 0.820879
thorax -0.456001 1.41659 2.22569
lowerneck -19.9111 -3.40214 2.78693
upperneck 46.9407 -8.29078 10.2653
head 25.4703 -0.0157588 3.96144
rclavicle -1.29272e-014 -8.44835e-015
rhumerus 14.5687 38.5432 -71.8563
rradius 100.994
rwrist -37.7586
rhand -0.967405 22.6941
rfingers 7.12502
rthumb 24.6634 -5.73652
lclavicle -1.29272e-014 -8.44835e-015
lhumerus -5.94659 -34.482 65.0059
lradius 125.741
lwrist 0.702289
lhand -29.8753 29.88
lfingers 7.12502
lthumb -3.19707 779.836
rfemur -0.141657 27.8422 23.3695
rtibia 3.11354
rfoot -8.30355 -54.1437
rtoes 10.7202
lfemur -17.5099 -16.4896 -12.4509
ltibia 21.7588
lfoot -11.3443 11.7025
ltoes -31.2971
1834
root 4.99464 17.7636 0.582723 21.6968 97.6031 14.1689
lowerback -1.03602 2.09667 -2.37141
upperback -0.871934 2.8205 0.796408
thorax -0.467903 1.42923 2.15693
lowerneck -19.9693 -3.20761 2.94841
upperneck 46.9016 -8.09602 10.3771
head 25.4359 0.0982154 4.04399
rclavicle 2.36181e-014 -5.96354e-016
rhumerus 15.2143 38.5218 -71.8787
rradius 101.466
rwrist -37.4496
rhand -2.00259 22.8476
rfingers 7.12502
rthumb 23.6709 -5.71502
lclavicle 2.36181e-014 -5.96354e-016
lhumerus -6.50749 -34.2933 65.9297
lradius 125.799
lwrist 0.865853
lhand -29.5226 29.8756
lfingers 7.12502
lthumb -2.8564 779.836
rfemur -0.0500415 27.9406 23.429
rtibia 3.22544
rfoot -8.40516 -54.1838
rtoes 10.5137
lfemur -17.3357 -16.3797 -12.5067
ltibia 21.7578
lfoot -11.3966 11.676
ltoes -31.2283
1835
root 5.00655 17.7623 0.578827 21.8699 97.5677 14.4008
lowerback -1.1148 2.12413 -2.28668
upperback -0.907084 2.85842 0.77296
thorax -0.456495 1.44805 2.08802
lowerneck -20.1117 -3.01168 3.1708
upperneck 46.9281 -7.89637 10.4099
head 25.4979 0.222101 4.08256
rclavicle 2.21769e-014 1.83876e-014
rhumerus 15.6575 38.4281 -71.9458
rradius 102.014
rwrist -36.8924
rhand -2.77542 23.0566
rfingers 7.12502
rthumb 22.9295 -5.59994
lclavicle 2.21769e-014 1.83876e-014
lhumerus -7.04771 -34.217 66.8602
lradius 125.869
lwrist 0.87592
lhand -29.2819 29.8614
lfingers 7.12502
lthumb -2.62394 779.825
rfemur 0.076068 27.9751 23.4995
rtibia 3.21542
rfoot -8.53309 -54.1948
rtoes 10.6643
lfemur -17.2251 -16.3106 -12.5357
ltibia 21.7742
lfoot -11.3994 11.6601
ltoes -31.5928
1836
root 5.01938 17.7607 0.575946 21.7304 97.599 14.3005
lowerback -1.23794 2.13058 -2.2531
upperback -0.918404 2.8696 0.754825
thorax -0.39713 1.45288 2.05564
lowerneck -20.2873 -2.86463 3.21576
upperneck 46.9477 -7.76473 10.5923
head 25.6288 0.303835 4.23912
rclavicle 1.9133e-014 8.94531e-015
rhumerus 16.0298 38.3556 -71.988
rradius 102.592
rwrist -36.0656
rhand -3.10999 23.3715
rfingers 7.12502
rthumb 22.6084 -5.32453
lclavicle 1.9133e-014 8.94531e-015
lhumerus -7.49863 -34.2172 67.7405
lradius 125.886
lwrist 0.716862
lhand -29.2658 29.7896
lfingers 7.12502
lthumb -2.60838 779.753
rfemur 0.248245 27.9388 23.5584
rtibia 3.12094
rfoot -8.66249 -54.1744
rtoes 11.1097
lfemur -17.152 -16.1707 -12.5946
ltibia 21.8034
lfoot -11.3809 11.5113
ltoes -32.1968
1837
root 5.03135 17.7596 0.574641 21.4093 97.6786 14.0317
lowerback -1.31302 2.11818 -2.25072
upperback -0.938879 2.85479 0.737174
thorax -0.37428 1.44544 2.03883
lowerneck -20.2985 -2.65749 3.56008
upperneck 46.7834 -7.56732 10.522
head 25.3671 0.425918 4.1346
rclavicle 2.2239e-015 -9.93923e-015
rhumerus 16.2888 38.4094 -72.0515
rradius 103.17
rwrist -35.0927
rhand -3.27051 23.6236
rfingers 7.12502
rthumb 22.4543 -5.0911
lclavicle 2.2239e-015 -9.93923e-015
lhumerus -7.92891 -34.2709 68.5941
lradius 125.899
lwrist 0.531104
lhand -29.4369 29.7904
lfingers 7.12502
lthumb -2.77365 779.752
rfemur 0.435505 27.8484 23.623
rtibia 3.02168
rfoot -8.76767 -54.1543
rtoes 11.266
lfemur -17.0785 -15.9503 -12.6654
ltibia 21.8304
lfoot -11.3936 11.2181
ltoes -32.2834
1838
root 5.04156 17.7584 0.573646 20.9243 97.7935 13.6143
lowerback -1.28907 2.07866 -2.2279
upperback -1.00191 2.80123 0.681838
thorax -0.44558 1.41999 1.96662
lowerneck -20.3796 -2.50917 3.69703
upperneck 46.7079 -7.42651 10.5745
head 25.3005 0.506419 4.16267
rclavicle -1.58034e-014 -1.68967e-015
rhumerus 16.4069 38.6697 -72.1795
rradius 103.81
rwrist -34.0162
rhand -3.47016 23.7507
rfingers 7.12502
rthumb 22.2627 -4.987
lclavicle -1.58034e-014 -1.68967e-015
lhumerus -8.35552 -34.3476 69.3698
lradius 125.848
lwrist 0.251335
lhand -29.5246 29.762
lfingers 7.12502
lthumb -2.85832 779.723
rfemur 0.586204 27.7166 23.671
rtibia 2.99665
rfoot -8.84042 -54.167
rtoes 11.2678
lfemur -16.9971 -15.7192 -12.75
ltibia 21.8399
lfoot -11.4116 10.8694
ltoes -32.361
1839
root 5.04942 17.7571 0.572878 20.3999 97.9213 13.1223
lowerback -1.29453 2.02797 -2.22275
upperback -1.04937 2.73361 0.631058
thorax -0.484968 1.38703 1.91056
lowerneck -20.4944 -2.33754 3.85101
upperneck 46.6565 -7.25314 10.6175
head 25.2716 0.601468 4.19604
rclavicle 2.72956e-014 -1.20265e-014
rhumerus 16.7461 39.1096 -72.0154
rradius 104.412
rwrist -32.756
rhand -3.88102 24.0274
rfingers 7.12502
rthumb 21.8682 -4.75686
lclavicle 2.72956e-014 -1.20265e-014
lhumerus -8.61418 -34.4271 70.0147
lradius 125.725
lwrist -0.130292
lhand -29.5093 29.6738
lfingers 7.12502
lthumb -2.84354 779.635
rfemur 0.698284 27.5712 23.697
rtibia 2.97961
rfoot -9.15405 -54.1688
rtoes 11.8703
lfemur -16.9679 -15.56 -12.8217
ltibia 21.8469
lfoot -11.4142 10.5805
ltoes -32.5542
1840
root 5.05801 17.7582 0.572847 20.2714 98.0456 12.9684
lowerback -1.49377 1.98921 -2.31143
upperback -1.01877 2.68788 0.699805
thorax -0.347283 1.36307 2.03899
lowerneck -20.6344 -2.13673 3.97086
upperneck 46.5497 -6.99104 10.572
head 25.1629 0.704267 4.18901
rclavicle 2.53823e-014 5.96354e-015
rhumerus 17.4542 39.7595 -71.2923
rradius 104.87
rwrist -31.1001
rhand -4.5316 24.7037
rfingers 7.12502
rthumb 21.2434 -4.15222
lclavicle 2.53823e-014 5.96354e-015
lhumerus -8.74046 -34.4543 70.655
lradius 125.578
lwrist -0.536897
lhand -29.6805 29.5756
lfingers 7.12502
lthumb -3.00892 779.534
rfemur 0.878275 27.4484 23.7662
rtibia 2.71199
rfoot -9.43325 -54.1377
rtoes 12.7002
lfemur -17.0228 -15.5218 -12.8087
ltibia 21.9
lfoot -11.4442 10.4362
ltoes -32.5318
1841
root 5.06714 17.7583 0.572929 20.4298 98.1849 13.1289
lowerback -1.61089 1.96425 -2.27233
upperback -1.02452 2.65711 0.719939
thorax -0.285145 1.347 2.04202
lowerneck -20.7934 -1.98972 4.01497
upperneck 46.5003 -6.83309 10.6618
head 25.1774 0.777819 4.27383
rclavicle 3.57315e-014 6.4605e-015
rhumerus 18.1266 40.5537 -70.5208
rradius 105.204
rwrist -28.8204
rhand -5.63355 25.5965
rfingers 7.12502
rthumb 20.1846 -3.37488
lclavicle 3.57315e-014 6.4605e-015
lhumerus -8.83903 -34.5721 71.1145
lradius 125.43
lwrist -0.883741
lhand -29.7886 29.4122
lfingers 7.12502
lthumb -3.11329 779.369
rfemur 1.43501 27.3231 23.9664
rtibia 1.80606
rfoot -8.97398 -54.1066
rtoes 12.9802
lfemur -17.0826 -15.5551 -12.7432
ltibia 22.0278
lfoot -11.5538 10.3589
ltoes -32.4574
1842
root 5.07009 17.7562 0.574688 20.967 98.4085 13.6811
lowerback -1.48515 1.95506 -1.99999
upperback -1.14784 2.63919 0.63094
thorax -0.464183 1.3398 1.79076
lowerneck -20.8191 -1.82387 4.35321
upperneck 46.4118 -6.69472 10.5978
head 25.0391 0.884244 4.18132
rclavicle -3.18552e-014 6.95746e-016
rhumerus 18.6558 41.344 -69.8856
rradius 105.397
rwrist -26.2355
rhand -7.32825 26.4517
rfingers 7.12502
rthumb 18.5551 -2.68334
lclavicle -3.18552e-014 6.95746e-016
lhumerus -8.89159 -34.8779 71.3247
lradius 125.327
lwrist -1.05901
lhand -29.582 29.3075
lfingers 7.12502
lthumb -2.91376 779.267
rfemur 2.48027 27.1336 24.3617
rtibia -1.27222e-014
rfoot -7.73425 -54.0628
rtoes 13.0855
lfemur -17.2118 -15.5179 -12.5819
ltibia 22.2031
lfoot -11.6511 10.153
ltoes -32.3704
1843
root 5.06754 17.7555 0.578482 22.207 98.6901 14.8626
lowerback -1.4861 1.93624 -1.74728
upperback -1.2344 2.61244 0.653633
thorax -0.540668 1.3269 1.67069
lowerneck -20.8284 -1.61777 4.79447
upperneck 46.2517 -6.46276 10.3329
head 24.7638 1.01046 3.94782
rclavicle -2.92959e-014 -2.98177e-015
rhumerus 19.4026 42.155 -68.9786
rradius 105.454
rwrist -24.3604
rhand -9.15719 27.3289
rfingers 7.12502
rthumb 16.7951 -1.96471
lclavicle -2.92959e-014 -2.98177e-015
lhumerus -8.85121 -35.1049 71.5291
lradius 125.276
lwrist -1.22035
lhand -29.4287 29.197
lfingers 7.12502
lthumb -2.76577 779.159
rfemur 2.38131 26.9425 24.6156
rtibia 1.59028e-015
rfoot -7.78147 -54.0284
rtoes 13.0835
lfemur -17.4872 -15.4327 -12.2591
ltibia 22.3909
lfoot -11.6505 9.90056
ltoes -32.433
1844
root 5.06836 17.7564 0.580208 23.2884 98.8662 15.8587
lowerback -1.69608 1.91918 -1.66152
upperback -1.23086 2.59319 0.746901
thorax -0.419195 1.31634 1.72624
lowerneck -21.1572 -1.55867 4.54492
upperneck 46.3513 -6.41348 10.6309
head 25.0929 1.02424 4.23776
rclavicle -1.68097e-014 1.27222e-014
rhumerus 20.2664 42.9307 -67.9653
rradius 105.484
rwrist -24.2754
rhand -10.8407 28.1158
rfingers 7.12502
rthumb 15.174 -1.30787
lclavicle -1.68097e-014 1.27222e-014
lhumerus -8.81596 -35.1632 71.7739
lradius 125.249
lwrist -1.64379
lhand -29.4348 28.9122
lfingers 7.12502
lthumb -2.77165 778.874
rfemur 2.24854 26.8474 24.7819
rtibia -1.59028e-015
rfoot -7.487 -54.0065
rtoes 12.8698
lfemur -17.7357 -15.4768 -11.9896
ltibia 22.5669
lfoot -11.6596 9.86366
ltoes -32.5317
1845
root 5.07201 17.7577 0.581139 23.6305 98.9432 16.1424
lowerback -1.84167 1.92202 -1.71914
upperback -1.25524 2.60092 0.803838
thorax -0.368329 1.32098 1.82182
lowerneck -21.2477 -1.39996 4.68167
upperneck 46.2724 -6.1868 10.5086
head 24.9887 1.10999 4.17521
rclavicle -2.70844e-015 5.56597e-015
rhumerus 20.8288 43.438 -67.2878
rradius 105.661
rwrist -26.0152
rhand -11.9034 28.5545
rfingers 7.12502
rthumb 14.1501 -0.943588
lclavicle -2.70844e-015 5.56597e-015
lhumerus -8.9087 -35.1947 72.0513
lradius 125.203
lwrist -2.32414
lhand -29.5596 28.69
lfingers 7.12502
lthumb -2.89217 778.65
rfemur 2.17837 26.7997 24.8267
rtibia 6.36111e-015
rfoot -7.51389 -54.0096
rtoes 13.2195
lfemur -17.8748 -15.5275 -11.8872
ltibia 22.7006
lfoot -11.7167 9.86298
ltoes -32.3687
1846
root 5.07375 17.7587 0.584521 23.6945 99.0111 16.1779
lowerback -1.98024 1.94459 -1.95821
upperback -1.24488 2.63782 0.936112
thorax -0.299143 1.34109 2.09698
lowerneck -21.3165 -1.25498 4.77494
upperneck 46.1362 -5.96021 10.3759
head 24.8142 1.18217 4.10211
rclavicle 2.21272e-014 -9.93923e-015
rhumerus 21.1174 43.4617 -66.8547
rradius 106.008
rwrist -28.1313
rhand -11.8663 28.6257
rfingers 7.12502
rthumb 14.1858 -0.869945
lclavicle 2.21272e-014 -9.93923e-015
lhumerus -8.92916 -35.1948 72.4119
lradius 125.116
lwrist -3.10052
lhand -29.7463 28.5339
lfingers 7.12502
lthumb -3.07242 778.492
rfemur 2.16064 26.7423 24.8684
rtibia -9.54166e-015
rfoot -7.63399 -54.0102
rtoes 13.5396
lfemur -17.9501 -15.4603 -11.8425
ltibia 22.7703
lfoot -11.7758 9.74724
ltoes -32.2035
1847
root 5.07543 17.7583 0.589018 23.7308 99.0647 16.2092
lowerback -1.58009 2.03943 -1.01253
upperback -1.53283 2.74454 0.173211
thorax -0.740623 1.38923 0.767061
lowerneck -21.3624 -1.18653 5.12678
upperneck 46.0684 -6.27045 11.0366
head 24.9088 1.23785 4.36738
rclavicle 7.37988e-015 0
rhumerus 20.1883 42.6967 -68.6509
rradius 106.271
rwrist -28.9199
rhand -11.361 28.7303
rfingers 7.12502
rthumb 14.6727 -0.730519
lclavicle 7.37988e-015 0
lhumerus -8.93584 -35.8705 71.4736
lradius 125.106
lwrist -3.68705
lhand -29.9237 28.2346
lfingers 7.12502
lthumb -3.24381 778.19
rfemur 2.16901 26.6957 24.9174
rtibia -4.77083e-015
rfoot -7.34631 -54.0026
rtoes 12.9013
lfemur -17.9766 -15.3805 -11.8126
ltibia 22.8015
lfoot -11.8265 9.64679
ltoes -32.3306
